<svg xmlns="http://www.w3.org/2000/svg" viewBox="0 0 200 246" fill="#c9a227">
  <!-- Crescent Moon -->
  <path d="M125 4a18 18 0 1 1-4.5 35.5A22.5 22.5 0 1 0 125 4Z"/>

  <!-- Top chevron - curved open book pages with sweeping wings -->
  <path d="
    M0 60
    C25 60 50 60 70 60
    C82 60 90 62 95 68
    C98 72 100 80 100 80
    C100 80 102 72 105 68
    C110 62 118 60 130 60
    C150 60 175 60 200 60
    L200 96
    C165 96 135 100 115 112
    C106 118 103 130 100 148
    C97 130 94 118 85 112
    C65 100 35 96 0 96
    Z
  "/>

  <!-- Middle chevron -->
  <path d="
    M0 154 L65 154 L100 194 L135 154 L200 154
    L200 176 L135 176 L100 216 L65 176 L0 176 Z
  "/>

  <!-- Bottom chevron -->
  <path d="
    M0 184 L65 184 L100 224 L135 184 L200 184
    L200 206 L135 206 L100 246 L65 206 L0 206 Z
  "/>
</svg>
