<svg xmlns="http://www.w3.org/2000/svg" viewBox="0 0 200 200" fill="#c9a227">
  <!-- Crescent Moon - waning crescent, upper left area -->
  <path d="M76 6a14 14 0 1 1-3.5 27.5A17.5 17.5 0 1 0 76 6Z"/>

  <!-- Top chevron - elegant curved wings with flat tops, sharp V at center -->
  <path d="
    M0 36 L68 36
    C78 36 86 42 92 54
    C96 62 99 76 100 108
    C101 76 104 62 108 54
    C114 42 122 36 132 36
    L200 36
    L200 56
    C170 56 145 60 125 74
    C112 83 106 96 100 114
    C94 96 88 83 75 74
    C55 60 30 56 0 56
    Z
  "/>

  <!-- Middle chevron - angular with flat horizontal edges -->
  <path d="
    M0 122 L68 122 L100 160 L132 122 L200 122
    L200 142 L132 142 L100 180 L68 142 L0 142 Z
  "/>

  <!-- Bottom chevron - same shape shifted down -->
  <path d="
    M0 150 L68 150 L100 188 L132 150 L200 150
    L200 170 L132 170 L100 208 L68 170 L0 170 Z
  "/>
</svg>
